<svg version="1" xmlns="http://www.w3.org/2000/svg" width="1213.333" height="1213.333" viewBox="0 0 910.000000 910.000000"><path d="M232 65c0 .5-.6 1-1.4 1-.8 0-1.7 1.3-2.1 2.9-.3 1.6-1.3 3.5-2.1 4.2-.8.6-1.4 1.8-1.4 2.5 0 .8-.3 1.4-.8 1.4-.4 0-1.2.9-1.7 2-.6 1-2.1 4.1-3.4 6.7-1.4 2.6-2.9 5.1-3.5 5.5-.6.4-.7 1-.3 1.4.4.4-.2 1.4-1.3 2.1-1.1.8-1.8 1.8-1.5 2.3.3.5-.3 1.3-1.2 1.9-1 .6-1.4 1.1-.9 1.1.5 0-.1 1.1-1.4 2.5-1.3 1.4-2 2.5-1.6 2.5.4 0-.2 1.3-1.3 2.9-1.2 1.6-2.1 3.4-2.1 4 0 .7-.7 1.4-1.6 1.8-.8.3-1.3 1.2-1 1.9.3.8.1 1.4-.4 1.4-.6 0-1 .7-1 1.5s-.4 1.5-1 1.5c-.5 0-1 .9-1 2 0 1-.6 2.3-1.4 2.7-.8.4-1.6 1.2-1.7 1.8-.7 3.4-2.2 6.4-3.5 6.9-.9.3-1.2 1-.9 1.6.3.5.1 1-.5 1-.7 0-1 .6-.7 1.3.3.7-.4 1.9-1.4 2.6-1.1.6-1.7 1.6-1.4 2.1.4.6-.1 1.3-.9 1.6-.9.3-1.6 1-1.6 1.4 0 .5-.5 2.1-1.2 3.7-.6 1.5-1 3.2-.9 3.6.1.5-.2.6-.7.3-.8-.5-7.2 9.7-7.2 11.5 0 .5-.7.9-1.6.9-.8 0-1.3.4-1 .9.7 1.1-2.3 7.1-3.5 7.1-.6 0-.8.4-.5.9.3.4-.3 1.9-1.4 3.1-1.1 1.3-2 3.2-2 4.2s-.7 2.1-1.5 2.4c-.8.4-1.5 1.5-1.5 2.5s-.4 1.9-1 1.9c-.5 0-1 .7-1 1.5 0 .7-.7 1.8-1.7 2.3-1 .6-1.4 1.6-1 2.6.4 1-.1 2.1-1.3 2.8-1.1.7-2 1.6-2 2 0 .4-1.1 2.4-2.5 4.4-1.4 2-2.2 4-1.9 4.5.3.5-.2.9-1 .9-1 0-1.3.6-1 1.5.4.8.1 1.5-.5 1.5s-.8.6-.5 1.4c.3.7-.2 1.6-1 1.9-.9.4-1.6 1.6-1.6 2.7s-.4 2-1 2c-.5 0-1 .6-1 1.4 0 .8-.6 1.6-1.2 1.9-.7.2-2.2 2.8-3.3 5.6-1.1 2.8-2.2 5.1-2.6 5.1-.4 0-1.5 1.7-2.6 3.7-1 2.1-2.6 4.9-3.4 6.3-2 3.3-14.8 25.1-18.5 31.5-1.6 2.7-2.7 5.3-2.6 5.7.1.5-.2.8-.8.8-.5 0-1 .6-1 1.3 0 .8-1.1 2.7-2.5 4.3-1.4 1.6-2.5 3.4-2.5 4 0 .6-.7 1.7-1.5 2.4s-1.2 1.6-.9 2.1c.3.5-.2 1.2-1 1.5-.9.3-1.3 1-1 1.5.3.5 0 .9-.6.9s-.9.4-.5 1c.3.5-.3 1.8-1.5 3-1.1 1.1-2 2.2-2 2.5-.1 1.4-1.5 4.3-3.5 7-1.2 1.6-2.6 4.1-3 5.5-.4 1.4-1.7 3.3-2.7 4.2-1.1.9-1.7 2.2-1.3 2.7.3.6.1 1.1-.4 1.1-.6 0-1.1.9-1.1 2.1 0 1.1-.4 1.7-1 1.4-.6-.3-1 .4-1 1.6 0 1.2-.3 1.9-.7 1.6-.3-.4-1.9 2-3.5 5.3-1.7 3.3-3.3 6-3.8 6-.4 0-1.5 1.8-2.4 4-.9 2.2-2 4-2.4 4-.5 0-1.4 1.6-2.2 3.5-.8 1.9-1.7 3.5-2.2 3.5-.4 0-.5.6-.3 1.2.3.7-.6 2.5-2 4s-2.5 3.4-2.5 4.3c0 .8-.5 1.5-1.1 1.5-.5 0-.8.4-.4.9.3.5-.2 1.6-1 2.4-.8.9-1.5 2-1.5 2.6 0 .6-.4 1.1-.8 1.1-.8 0-3.6 6-3.3 7.2 0 .5-.6.8-1.5.8-1 0-1.4.6-1 1.5.3.8.2 1.5-.2 1.5-.5 0-1.6 1.8-2.6 4s-2.2 4-2.7 4c-.6 0-.8.4-.5.9.3.5-.1 1.4-.9 2.1-.8.7-1.2 1.6-.9 2.1.3.5 0 .9-.5.9-.6 0-1.1.7-1.1 1.5s-.5 1.5-1.1 1.5c-.5 0-.8.4-.5.9.3.5-.5 2-1.8 3.4-2.4 2.6-4 5.6-3.8 6.9.1.5-.3.8-.8.8-.6 0-1 .9-1 2 0 1-.9 2.4-2 3-1.1.6-1.9 1.4-1.9 1.8.2 1.5-1.4 5.2-2.2 5.2-.5 0-.8.3-.7.7.3 1.5-2.2 6.3-3.2 6.3-.5 0-1 .7-1 1.5s-.5 1.5-1.1 1.5c-.5 0-.7.4-.4 1 .3.5.2 1-.4 1-.5 0-1.2 1.3-1.6 3-.8 3.6.4 12.2 1.6 11.4.5-.3.9.1.9.9 0 1.7 3.5 5.9 4.3 5.1.3-.3.3.3 0 1.5-.3 1.3-.1 2.1.6 2.1s.9.4.6 1c-.3.5-.2 1 .3 1 .9 0 2.5 3.7 2.3 5.2 0 .4.8 1.2 1.9 1.8 1.1.6 2 1.8 2 2.6 0 1.6 2.9 7.4 4.1 8.4.4.3 1.7 2.4 2.9 4.7 1.2 2.4 2.6 4.3 3.2 4.3.5 0 .7.4.3.9-.3.5 0 1.6.7 2.3 1.8 1.9 4.8 6.9 5.5 9 .3 1 .9 1.8 1.4 1.8.5 0 .6.7.3 1.5-.4 1 0 1.5 1.1 1.5.9 0 1.3.5 1 1-.3.6.1 1.7.9 2.6.9.8 1.6 2.2 1.6 3 0 .8.5 1.4 1 1.4.6 0 1 .5 1 1.1 0 .6.7 1.7 1.5 2.6.8.8 1.3 1.9 1 2.4-.4.5-.1.9.4.9.6 0 1.1.9 1.1 2s.5 2 1 2c.6 0 1 .6 1 1.4 0 .8.6 1.6 1.4 1.9.7.3 1.7 2.2 2 4.1.4 2 1.1 3.4 1.7 3.1.5-.4.9.3.9 1.4 0 1.2.5 2.1 1 2.1.6 0 1.7 1.8 2.6 4 .9 2.2 1.9 4 2.3 4 .7 0 2.7 3.6 2.9 5.3.1.4.8 1.5 1.7 2.3.8.9 1.5 2.2 1.5 3 0 .8.7 1.4 1.5 1.4.9 0 1.2.6.8 1.7-.4 1-.2 1.4.4 1 .6-.4 1.3.6 1.7 2.5.3 1.7 1.5 3.9 2.7 4.9 1.1.9 2.1 2.1 2.1 2.6.2 2.2 2.1 6.3 2.9 6.3.5 0 .9.7.9 1.5s.4 1.5.9 1.5c.7 0 2.2 3.6 2 4.9-.1.2.6.8 1.5 1.3S94 595 94 596c0 1.1.5 2 1 2 .6 0 1 .7 1 1.5s.5 1.5 1.1 1.5c.5 0 .8.4.5.9-.3.5.1 1.4.9 2.1.8.7 1.5 1.7 1.5 2.3 0 .5 1.1 2.5 2.5 4.3 1.4 1.8 2.5 3.7 2.5 4.3 0 .6.4 1.1 1 1.1.5 0 .7.7.4 1.5-.4.8-.1 1.5.6 1.5.6 0 .9.4.6.9-.3.4.3 1.6 1.4 2.6 1.1 1 2 2.4 2 3.2 0 .7.5 1.3 1 1.3.6 0 1 .9 1 1.9 0 1.1.7 2.6 1.5 3.4.8.8 2.4 3.4 3.6 5.7 1.2 2.3 2.8 4.4 3.5 4.7.7.2 1.1 1.3.9 2.3-.2 1 .3 2.4 1.1 3.1.8.6 1.4 1.7 1.4 2.5 0 .7.8 1.9 1.8 2.6 1.1.7 2.9 3.3 4.1 5.8 4.1 8.6 8.1 15.5 9.1 15.8.6.2 1 1 1 1.8s.5 1.4 1 1.4c.6 0 1 .9 1 2s.7 2.3 1.6 2.7c.8.3 1.3 1.2 1 1.9-.3.7-.1 1.6.5 1.9.5.4.7 1.1.4 1.6-.4.5.1.9 1 .9s1.5.6 1.2 1.2c-.2.7.5 2.6 1.7 4.3 1.2 1.6 2.8 4.2 3.5 5.7.8 1.6 1.8 2.8 2.2 2.8.5 0 .6.6.3 1.4-.3.7.2 1.6 1 1.9.9.4 1.6 1.5 1.6 2.4 0 1 .9 2.5 1.9 3.3 1.1.7 1.8 1.7 1.5 2.2-.3.4 0 .8.5.8.6 0 1.1.9 1.1 2s.4 2 1 2c.5 0 .7.6.4 1.4-.3.8.3 1.7 1.4 2 1.3.4 2.2 1.9 2.6 4.1.4 1.9 1.1 3.5 1.6 3.5.6 0 1 .7 1 1.5s.5 1.5 1 1.5c.6 0 1 .6 1 1.3 0 .7.6 1.9 1.3 2.5.6.7 1.2 1.6 1.3 2 .2 1.8 1.9 4.8 3.4 6.2.9.8 1.5 2.1 1.2 2.9-.3.8 0 1.1.6.7.6-.3 1.3.7 1.7 2.4.4 1.6 1.3 3 2 3 .8 0 1.2.6.9 1.3-.3.8.2 2 1.1 2.7.8.7 1.5 1.9 1.5 2.6 0 .8.5 1.4 1 1.4.6 0 1 .6 1 1.4 0 .7.7 1.9 1.5 2.6.8.7 1.5 1.9 1.5 2.7 0 .8.6 2.1 1.2 2.8 2.9 3.2 3.4 4.1 3.1 5.1-.2.5.5 1.9 1.6 3.1 1.1 1.1 1.7 2.4 1.4 2.7-.4.3.3 1.4 1.4 2.3 1.1 1 1.8 2.4 1.6 3-.3.7.2 1.3 1.1 1.3.9 0 1.3.6 1 1.4-.3.8 0 1.7.5 2.1.6.3.9 1.1.6 1.6-.4.5.1.9 1 .9s1.4.4 1.1.9c-.3.4.3 1.6 1.4 2.6 1.1 1 1.7 2.1 1.5 2.5-.3.4.2 1.3 1 2s1.5 1.9 1.5 2.6c0 .8.5 1.4 1 1.4.6 0 1 .9 1 2.1 0 1.1.4 1.8.9 1.4.6-.3 1.3 1 1.6 2.9.4 1.9 1.3 3.7 2.1 4 .8.3 1.4 1.2 1.4 2.1 0 .8.5 1.5 1 1.5.6 0 1 .6 1 1.4 0 .7.6 1.9 1.4 2.5.8.7 1.7 2.4 2.1 3.8.3 1.5 1.4 3.3 2.3 4 1.4 1 45.4 1.2 226.7 1.2 196.3 0 225.2-.2 226.9-1.4 1.1-.8 1.7-1.5 1.3-1.5-.4 0 .2-1.5 1.3-3.3 1.1-1.7 2.3-4 2.6-5 .4-.9 1-1.7 1.5-1.7s.9-.7.9-1.5c0-.9.7-1.8 1.5-2.1.8-.4 1.5-1.3 1.5-2.1s1.1-3.4 2.4-5.8c1.4-2.4 2.2-4.5 2-4.8-.3-.3.4-.8 1.6-1.2 1.3-.4 1.9-1.2 1.6-2.1-.3-.8.1-1.7.9-2 .8-.4 1.2-1 .9-1.5-.3-.5 0-.9.6-.9s.8-.5.5-1c-.3-.6-.2-1 .3-1 .9 0 4.4-6.3 4.2-7.6-.1-.3.8-1.4 2-2.4 1.2-1.1 1.9-2.4 1.5-2.9-.3-.6-.1-1.1.4-1.1.6 0 1.1-.7 1.1-1.5s.5-1.5 1-1.5c.6 0 1-.7 1-1.6 0-.9.8-2.8 1.9-4.2 1-1.5 2.2-3.7 2.5-5 .4-1.2 1.2-2 1.7-1.7.5.4.9-.2.9-1.1 0-.9 1.1-3.2 2.5-4.9 1.3-1.8 2.1-3.5 1.8-3.9-.3-.3.2-.8 1.1-1.2.9-.3 1.3-1 1-1.5-.3-.5 0-.9.5-.9.6 0 1.1-.9 1.1-2 0-1 1.1-3 2.4-4.3 1.3-1.3 2.7-3.4 3.1-4.7.4-1.3 1.4-3 2.1-3.8.8-.7 1.4-2 1.4-2.8 0-.8.5-1.4 1-1.4.6 0 1-.7 1-1.6 0-.8.7-2.2 1.5-3 .8-.9 1.5-2.4 1.5-3.4s.9-2.2 2-2.5c1.1-.4 1.8-1 1.5-1.5-.3-.5-.1-1.1.5-1.5.5-.3 1-1.5 1-2.5s.8-2.3 1.7-2.9c1-.5 1.5-1.2 1.1-1.6-.3-.4.1-1.5 1-2.5 3.7-4.1 4.4-5.2 3.8-6.5-.3-.8 0-1.8.7-2.2 1.5-1 4.5-5.5 4.3-6.6-.1-.5.7-1.3 1.7-1.8.9-.6 1.5-1.4 1.2-1.8-.2-.5.2-1.4 1-2.1.8-.7 1.2-1.6.9-2.1-.3-.5-.1-.9.5-.9s.8-.6.5-1.4c-.3-.7.2-1.6 1-1.9.9-.4 1.6-1.6 1.6-2.7s.5-2 1-2c.6 0 1-.6 1-1.4 0-.8.6-1.6 1.4-1.9.8-.3 1.7-1.9 2.1-3.6.4-1.7 1.1-3.1 1.6-3.1s.9-.8.9-1.8.9-2.4 1.9-3.2c1.1-.7 1.8-1.7 1.5-2.2-.3-.4 0-.8.5-.8.6 0 1.1-.9 1.1-2.1 0-1.2.8-2.3 1.9-2.6 1.2-.3 1.7-1.1 1.4-1.9-.3-.8 0-1.4.7-1.4s1-.7.7-1.4c-.4-.9.2-1.7 1.3-2.1 1.1-.4 1.7-1.3 1.5-2.4-.2-1.1.4-2.7 1.4-3.7.9-1.1 2.5-3.6 3.4-5.7 1-2 2.2-3.7 2.6-3.7.7 0 1.9-2.8 1.9-4.6 0-.3 1.2-2 2.6-3.9 1.4-1.8 2.6-3.8 2.6-4.4 0-.6.5-1.1 1.1-1.1.6 0 .9-.7.5-1.5-.3-.8-.1-1.5.4-1.5.6 0 1-.9 1-1.9 0-1 .6-2.1 1.4-2.4.8-.3 2.2-2.4 3.2-4.6.9-2.2 2.2-3.7 2.7-3.4.6.4.8 0 .4-1-.3-.9 0-1.8.9-2.1.9-.3 1.3-1 .9-1.5-.3-.5 0-1.3.5-1.6 1.2-.7 3.4-5.5 3.2-6.8-.1-.4.2-.7.8-.7.5 0 1-.7 1-1.5s.4-1.5.9-1.5 1.2-1.1 1.5-2.5c.4-1.4 1-2.3 1.5-2.1.5.3 1.1-.8 1.5-2.6.3-1.7 1.4-3.8 2.5-4.7 1-.9 2.2-2.7 2.6-4.1.9-2.9 5.4-10.2 6.7-11.1.5-.3.9-.8.8-1-.4-1.1 2.1-5.7 3.4-6.2.9-.4 1.5-1 1.4-1.4-.3-1.5 2.2-6.3 3.3-6.3.6 0 .9-.5.7-1.2-.2-.6.4-2 1.4-3 1-1 1.8-2.7 1.8-3.8 0-1.1.7-2.3 1.5-2.6.8-.4 1.5-1.2 1.5-2s.5-1.4 1-1.4c.6 0 1-.9 1-2s.5-2 1.2-2c.6 0 .8-.3.5-.7-.8-.7 2-5.4 3.9-6.6.7-.4 1.1-1.4.8-2.2-.4-.8.1-1.8 1-2.1.9-.3 1.3-1 1-1.5-.3-.5.2-1.2 1.1-1.5.9-.4 1.4-1.3 1.1-2-.3-.8-.1-1.4.4-1.4.6 0 1-.7 1-1.5s.5-1.5 1.1-1.5c.5 0 .7-.5.4-1.1-.4-.6.2-1.7 1.4-2.5 1.2-.9 1.9-2 1.6-2.5-.4-.5 0-1.2.9-1.5.8-.3 1.3-1.1 1-1.9-.3-.7.2-1.5 1-1.8.9-.4 1.6-1.6 1.6-2.7s.5-2 1-2c.6 0 1-.7 1-1.5 0-.9.7-1.8 1.5-2.1.8-.4 1.5-1.5 1.5-2.6 0-1.2.4-1.7 1.2-1.2.8.5.9.2.5-.9-.3-1-.2-1.7.3-1.7.6 0 1-.9 1-2 0-1 .9-2.4 2-3 1.1-.6 1.9-1.4 1.8-1.8-.4-1.2 5.2-12.2 6.2-12.2.6 0 1-.5 1-1.1 0-.7.7-1.7 1.6-2.4 2.5-1.8 2.5-13.5.1-15.9-.9-1-1.5-2.2-1.1-2.7.3-.5-.2-1.2-1-1.5-.9-.3-2.6-2.7-3.8-5.2-1.3-2.6-2.5-4.9-2.8-5.2-.3-.3-.6-1.2-.8-2-.2-.8-.8-1.7-1.3-1.9-.8-.2-2.3-3-3.4-6.1-1-2.8-2.2-4.7-3.7-5.8-1-.7-1.6-1.8-1.3-2.3.4-.5.2-.9-.4-.9-.6 0-1.3-1.1-1.7-2.5-.3-1.4-1-2.5-1.5-2.5s-.8-.3-.7-.8c.3-.9-3.4-7.2-4.3-7.2-.4 0-1-1.4-1.4-3-.4-1.7-1.1-3-1.5-3-.5 0-.7-.7-.4-1.5.4-1 0-1.5-1.2-1.5-.9 0-1.4-.3-1.1-.7.4-.3 0-1.4-.8-2.3-.9-1-1.5-2.1-1.3-2.6.1-.5-.8-2.2-2.2-3.7-1.4-1.6-2.5-3.6-2.5-4.5-.1-1-.7-1.6-1.4-1.4-.7.1-1-.1-.7-.6.8-1.4-1.7-6.1-3.5-6.7-1.1-.4-1.5-1.3-1.2-2.5.3-1.1-.3-2.5-1.5-3.6-1.1-.9-1.8-2.3-1.5-3 .3-.8 0-1.4-.5-1.4-.6 0-1.9-1.7-2.8-3.8-1-2-2.4-4.1-3.1-4.5-.7-.4-1.3-1.5-1.3-2.2 0-.8-.4-1.5-1-1.5-.5 0-.9-.3-.8-.8.3-1.2-3.2-7.2-4.2-7.2-.6 0-.9-.3-.8-.8.4-1.1-4.3-10.2-5.2-10.2-.5 0-1.1-1.4-1.5-3.1-.4-1.7-1.2-3.2-1.9-3.5-.7-.3-1.9-2-2.6-3.9-.8-1.9-1.8-3.5-2.2-3.5-.5 0-.7-.4-.3-.9.3-.5-.3-1.6-1.2-2.3-1-.7-1.8-1.8-1.9-2.3-.3-2.4-1.7-5.5-2.6-5.5-.5 0-.6-.4-.3-1 .3-.5-.3-1.5-1.4-2.1-1-.7-1.7-1.8-1.5-2.4.3-.6-.7-2.4-2.1-3.9-1.4-1.5-2.5-3.4-2.5-4.2 0-.7-.5-1.4-1.2-1.4-.6 0-.8-.3-.5-.6.4-.4-.4-2.1-1.6-3.8-3.5-4.9-11.6-18.6-14.7-24.6-1.5-3-6.2-11.3-10.4-18.3S774 221.5 774 221c0-.6-.4-1-1-1-.5 0-1-.6-1-1.4 0-.8-.7-2.1-1.5-3-.8-.8-1.6-2.4-1.8-3.6-.2-1.2-.9-2.5-1.7-3-.7-.4-.9-1.3-.6-1.9.4-.6 0-1.4-.8-1.7-.9-.3-1.4-1-1.1-1.4.3-.4-.2-1.3-1-2s-1.5-1.8-1.5-2.4c0-.6-.9-1.7-2.1-2.4-1.2-.8-1.8-1.9-1.5-3 .4-1.1-.2-2.3-1.3-3.1-1.1-.8-1.7-2-1.4-2.8.3-.8 0-1.3-.8-1.1-.8.2-1.3-.4-1.1-1.4.1-.9-.6-1.9-1.7-2.3-1.3-.4-1.7-1.2-1.4-2.5.3-1.2 0-2-.6-2-.7 0-1-.4-.7-.9.3-.5-.1-1.4-.9-2.1-.8-.7-1.3-1.6-1-2 .3-.4-.2-1-1-1.4-.8-.3-1.5-1.2-1.5-2.1 0-.8-.4-1.5-1-1.5-.5 0-1-.9-1-2s-.4-2-1-2c-.5 0-1-.6-1-1.4 0-.7-.7-1.9-1.5-2.6-.8-.7-1.2-1.6-.9-2.1.3-.5 0-.9-.5-.9-.6 0-1.1-.7-1.1-1.6 0-2-2.5-4.5-3.5-3.6-.5.4-.5-.1-.2-1.1.4-.9.2-1.7-.3-1.7-.6 0-1-.7-1-1.5s-.4-1.5-1-1.5c-.5 0-.7-.6-.4-1.4.3-.7-.2-1.6-1.1-2-1-.4-1.5-1.2-1.1-2.2.3-.8.2-1.3-.2-1-.5.3-1.7-1.2-2.8-3.2-1-2-2.5-4.3-3.2-5-.7-.8-1-1.8-.6-2.3.3-.5-.1-1.2-.9-1.5-.9-.3-1.8-1.6-2.1-3-.4-1.3-1.1-2.4-1.6-2.4s-.7-.7-.4-1.5c.4-.8.1-1.5-.5-1.5s-1.1-.7-1.1-1.5-.5-1.5-1.1-1.5c-.5 0-.8-.4-.5-.9.3-.5-.1-1.4-.9-2.1-.8-.7-1.5-1.9-1.5-2.6 0-.8-.4-1.4-1-1.4-.5 0-1-.9-1-2s-.4-2-1-2c-.5 0-1-.5-1-1.1 0-.6-.7-1.7-1.5-2.6-.8-.8-1.3-1.9-1-2.4.4-.5-.1-.9-1-.9s-1.4-.4-1-1c.3-.5-.3-1.8-1.5-3-1.1-1.1-1.7-2-1.3-2 .4 0 .2-.5-.5-1.2s-1.2-2-1.2-3.1c0-1-.4-1.6-.9-1.3-.5.3-1.2-.6-1.5-2-.4-1.5-1.7-4.1-2.9-5.8-3.2-4.5-4.6-6.8-5.8-9.6-.6-1.4-1.9-3.3-2.9-4.2-1.8-1.7-13.3-1.8-227-1.8-149.3 0-225 .3-225 1zm82.5 115.2l6 1.3.3 17.4c.2 16.3.1 17.3-1.5 16.6-7.8-3.4-13.9-4.8-22.4-5.3-16.2-.8-26 3.7-32.3 14.8-2.9 5.1-3.1 6.2-3.1 15.5 0 8.4.4 10.7 2.2 14.1 3.1 5.9 7.9 10.3 14.3 13.3 4.8 2.3 6.7 2.6 15.5 2.5 9.5 0 15.9-1.5 25.8-5.8 1.6-.8 1.7.4 1.7 16.1v17l-6.8 1.6c-10.7 2.6-25.8 4-35.6 3.2-29-2.2-47.4-14.8-55.7-38.2-3-8.2-3.7-28.1-1.5-37.8 2.8-11.6 8-21.1 16-29.1 9.8-9.7 19.6-14.8 34.6-18 7.8-1.6 33.3-1.2 42.5.8zm98.3-.6c22.5 4.6 39 20.1 44.9 42.4 2.3 8.9 2.3 27.2-.1 35.9-8.3 30.3-37.3 48.5-70.6 44.2-27-3.5-46.3-19.5-52.5-43.6-2-7.8-2-26.2 0-34 6.1-23.9 23.9-40.6 48.6-45.4 7.2-1.4 21.5-1.2 29.7.5zm142.4 3.2c11.1 3 18.1 6.7 24.7 12.8 9.9 9.1 14.6 20.9 15.7 38.6 1.9 31.9-14.7 55.9-44.3 64-7.1 1.9-11 2.2-41 2.6l-33.3.4V179.8l35.3.4c32.1.4 35.9.6 42.9 2.6zM692 194.5V209h-41v17h38v29h-38v16h43v30h-82V180h80v14.5zM542.5 346.2C559.8 354.9 569 360 569 361c-.1.9-3.1 3-7.3 5l-7.2 3.5-.3 16.5c-.3 17.4-.4 18-5.2 18-4.5 0-5-1.4-5-15.7 0-13.1 0-13.3-2-12.3-1.6.8-2 2.1-2 5.8-.1 9.8-8 20.5-17.8 24.2-10.7 4-21.8 2-30-5.5-5.4-4.8-8.2-10.5-8.9-18l-.6-6.2-13.8-6.9C460 365 455 362 455 361c.1-2.3 52.4-28 57.2-28 2.9 0 10.3 3.3 30.3 13.2zM668 346c14.3 7.2 26 13.3 26 13.8-.1 1.8-2.2 3.7-7.6 6.6l-5.9 3.1-.5 16.3c-.4 12.5-.8 16.5-1.9 17.1-2 1.3-8.2.6-9.2-1-.5-.8-.9-7-.9-13.8 0-11.1-.2-12.2-1.6-11-1.1.9-1.4 2.2-.9 4.5 1.3 7-6.5 19-15.2 23.4-5.7 2.8-14.6 3.6-21.3 1.9-10.8-2.9-19.7-13.5-20.7-24.9l-.6-5.9-13.8-6.8c-8.6-4.2-13.8-7.4-13.9-8.3 0-1 9.5-6.2 26.3-14.7 22.3-11.2 26.9-13.2 31-13.2 4.1-.1 8 1.6 30.7 12.9zm-323 3.4c22.4 3.9 34.7 7.5 46.5 13.6 16.8 8.7 29.4 20.3 38.4 35.5 4.7 7.8 10.5 22.9 11.2 29 .6 5.4.4 24.9-.3 30-1.5 10.3-10.1 31.9-14.4 36.2-.8.8-1.4 1.8-1.4 2.2 0 .4-.8 1.6-1.7 2.7-1 1-3.1 3.7-4.8 5.9-6.4 8.6-25.6 26.5-44.4 41.4-3.1 2.5-5.8 4.7-6.1 5-.3.3-4.3 3.8-9 7.8-4.7 3.9-13.6 12.3-19.8 18.7L327.8 589H441v79H208v-5.8c0-3.1.4-7.3.9-9.2.5-1.9 1.2-6.4 1.6-10 2.1-22 13.4-50.5 29.4-74.5 4.1-6.1 7.7-11.2 8-11.5.4-.3 1.9-2.1 3.4-4 4.6-5.7 18.9-21 23.2-24.9 2.1-2 7.1-6.5 11-10.1 3.8-3.6 9-8.1 11.5-10 2.5-1.9 4.7-3.7 5-4.1.3-.3 3.4-3 7-6 6.9-5.7 12.3-10.4 17.8-15.7 1.9-1.7 3.7-3.2 4.1-3.2 1.9 0 12.3-12.2 14.5-17 7.4-15.8-1.5-31.7-20.9-37.3-3.3-1-7.5-2.3-9.4-2.9-5.7-1.8-30.5-1.4-39.1.6-14.8 3.5-27.4 7.9-39.2 13.7-6.5 3.3-12.3 5.9-12.9 5.9-.5 0-.9-15.9-.9-40.9v-41l8.3-2.4c19.3-5.7 36.9-8.9 55.7-10.1 12-.8 49.8.4 58 1.8zm275.1 65.4c3 3.2 8.3 8.2 11.6 11.3l6 5.7 11.9-12c13.7-13.7 14-13.8 23.9-7.3 8.8 5.9 14.1 13 17.4 23.6 1.5 4.8 1.5 74.9 0 82-1.4 6.2-6.4 15.1-11.3 19.8l-3.6 3.5V668h-74.8l-.6-2.3c-.3-1.2-.6-29.6-.6-63.2v-60.9l-3.4-3.6c-1.9-1.9-5-6.1-6.9-9.2-5.6-9.3-6-14.6-5-58.3l.9-38 2.8-5c5.6-10.1 18.8-20.4 24.1-18.9 1.1.3 4.5 3.1 7.6 6.2zm-119.8 5.9l11.8 11.6 11.7-11.6c12.9-12.9 13.9-13.4 21.2-9.6 9.4 4.9 19.2 17.7 20.8 27.2 1.3 7.8.6 78.5-.9 83.1-1.6 5-6.7 13.1-10.8 17l-3.1 3V668h-77V540.5l-3.8-4.1c-2.1-2.3-5.3-7.3-7.2-11l-3.5-6.9v-83l3.8-7.3c2-4 5.1-8.5 6.9-10 1.8-1.5 3.9-3.5 4.8-4.4 2-2.2 7.8-4.7 11-4.8 1.9 0 5.5 2.9 14.3 11.7z"/><path d="M388 211.6c-4.8 2.1-7.8 5-10.8 10.9-2.2 4.3-2.7 6.5-3 16-.3 9.5-.1 11.8 1.8 16.9 5.6 14.7 20.8 20 32.2 11.3 15.3-11.7 13.6-46.8-2.6-54.7-5-2.4-12.6-2.6-17.6-.4zM515 239.9V271h8.3c4.5 0 9.9-.5 11.9-1 6.3-1.8 12-6.9 15.8-14.4 3.1-6.1 3.4-7.5 3.4-15.4 0-6.9-.5-9.8-2.3-13.8-4.8-10.8-13.9-16.4-28.3-17.2l-8.8-.5v31.2zM513.7 352.7c-1.6 1.5.1 2.7 15.1 10.2 12.9 6.5 16.1 7.7 17.7 6.9 1.6-.9-.6-2.3-14.6-9.4-17.5-8.9-17.2-8.7-18.2-7.7zM638.7 352.7c-.4.3-.7 1-.7 1.4 0 .4 7 4.2 15.5 8.4 12.4 6.2 16 7.6 18.2 7 2.4-.6.8-1.6-14-9.1-17.1-8.6-17.9-8.9-19-7.7z"/></svg>