<svg width="400" height="400" xmlns="http://www.w3.org/2000/svg">

 <g>
  <title>background</title>
  <rect fill="none" id="canvas_background" height="402" width="582" y="-1" x="-1"/>
 </g>
 <g>
  <title>Layer 1</title>
  <g opacity="0.4" id="svg_1" fill-rule="evenodd" fill="none">
   <path id="svg_2" stroke-linecap="square" stroke-width="2" stroke="#b3c4d6" d="m106,21l14,7"/>
   <circle id="svg_3" r="3" cy="58" cx="56" fill="#b3c4d6"/>
   <circle id="svg_4" r="3" cy="207" cx="361" fill="#b3c4d6"/>
   <path id="svg_5" d="m103,362l6,0l0,6l-6,0l0,-6zm104,-205l6,0l0,6l-6,0l0,-6z" stroke-width="2" stroke="#b3c4d6"/>
   <circle id="svg_6" r="3" cy="285" cx="183" fill="#b3c4d6"/>
   <circle id="svg_7" r="3" cy="100" cx="263" fill="#b3c4d6"/>
   <path id="svg_8" d="m272,325l6,0l0,6l-6,0l0,-6zm-163,-174l16,0l4,-15l-12,-9l-12,9l4,15zm80,-93.396l5,8.396l-5,7.604l-9,0l-5,-8l5,-8l9,0zm161,321.396l0,-12l12,0l0,-12l12,0m-128,-131s0,-24 24,-24m-189,83l5,3l-3,5l5,3l-3,5" stroke-width="2" stroke="#b3c4d6"/>
   <path id="svg_9" stroke-linecap="square" stroke-width="2" stroke="#b3c4d6" d="m41,228l7.884,-22.668"/>
   <path id="svg_10" d="m119,224l-2,-7l8,3l-6,4zm212,-102l14,0l0,14l-14,0l0,-14z" stroke-width="2" stroke="#b3c4d6"/>
   <circle id="svg_11" r="12" cy="33" cx="374" stroke-width="2" stroke="#b3c4d6"/>
   <path id="svg_12" stroke-width="2" stroke="#b3c4d6" d="m23,120s10,7 4,19m-1,233l3,-12l9,14l-12,-2zm158,10s15,-14 33,2m67,-348l-3,-11l13,4l-10,7zm24.382,233.38s0.908,-0.91 0.908,-1.82s-0.489,-1.178 -0.908,-1.446c-0.457,-0.294 -1.105,-0.353 -1.732,-0.098c-0.693,0.281 -1.269,0.902 -1.537,1.733c-0.287,0.909 -0.17,1.961 0.38,2.89c0.594,1 1.634,1.745 2.89,2.014c1.346,0.287 2.818,-0.007 4.047,-0.857c1.308,-0.909 2.223,-2.36 2.491,-4.047c0.281,-1.785 -0.183,-3.668 -1.34,-5.198c-1.21,-1.622 -3.08,-2.707 -5.199,-2.975c-2.216,-0.282 -4.518,0.36 -6.355,1.817c-1.922,1.524 -3.184,3.806 -3.452,6.356c-0.281,2.654 0.53,5.368 2.295,7.512c1.83,2.23 4.53,3.662 7.512,3.93c3.087,0.281 6.212,-0.706 8.67,-2.772c2.531,-2.138 4.133,-5.257 4.408,-8.67c0.28,-3.518 -0.877,-7.062 -3.25,-9.828c-2.446,-2.837 -5.976,-4.61 -9.828,-4.884c-3.955,-0.281 -7.911,1.046 -10.978,3.734c-3.151,2.746 -5.093,6.695 -5.368,10.978c-0.28,4.387 1.223,8.761 4.211,12.135c3.06,3.452 7.421,5.57 12.135,5.846c4.82,0.28 9.612,-1.393 13.293,-4.689c3.76,-3.367 6.048,-8.14 6.323,-13.292"/>
  </g>
 </g>
</svg>